<?xml version="1.0" encoding="UTF-8"?>
<svg xmlns="http://www.w3.org/2000/svg" xmlns:xlink="http://www.w3.org/1999/xlink" width="32" height="32" viewBox="0 0 52 52" version="1.1">
<g id="surface1">
<path style=" stroke:none;fill-rule:nonzero;fill:rgb(33.72549%,33.72549%,33.72549%);fill-opacity:1;" d="M 47.667969 38.148438 C 45.964844 43.089844 40.867188 51.835938 35.613281 51.929688 C 32.128906 51.996094 31.007812 49.867188 27.027344 49.867188 C 23.046875 49.867188 21.800781 51.867188 18.507812 51.996094 C 12.933594 52.210938 4.332031 39.371094 4.332031 28.171875 C 4.332031 17.886719 11.5 12.789062 17.761719 12.695312 C 21.121094 12.636719 24.292969 14.960938 26.339844 14.960938 C 28.394531 14.960938 32.25 12.164062 36.296875 12.574219 C 37.992188 12.648438 42.753906 13.257812 45.808594 17.726562 C 37.703125 23.015625 38.964844 34.082031 47.667969 38.148438 Z M 36.351562 0 C 30.230469 0.246094 25.234375 6.671875 25.929688 11.984375 C 31.589844 12.421875 37.019531 6.078125 36.351562 0 Z M 36.351562 0 "/>
</g>
</svg>
