<?xml version="1.0" encoding="UTF-8"?>
<svg xmlns="http://www.w3.org/2000/svg" xmlns:xlink="http://www.w3.org/1999/xlink" width="52px" height="52px" viewBox="0 0 52 52" version="1.1">
<g id="surface1">
<path style=" stroke:none;fill-rule:nonzero;fill:rgb(37.647059%,38.039216%,38.039216%);fill-opacity:1;" d="M 13 4.75 L 15.539062 5.179688 C 14.769531 9.953125 17.25 10.535156 21.386719 11.289062 C 24.566406 11.867188 28.167969 12.609375 28.167969 18.265625 L 28.167969 19.625 L 25.605469 19.625 L 25.605469 18.265625 C 25.605469 14.960938 24.5625 14.421875 20.914062 13.757812 C 15.316406 12.738281 12.039062 10.800781 13 4.75 Z M 52 34.5 C 52 41.539062 46.351562 47.25 39.378906 47.25 C 36.105469 47.25 33.125 45.984375 30.882812 43.925781 C 28.042969 41.3125 23.78125 41.519531 21.023438 44.003906 C 18.792969 46.019531 15.847656 47.25 12.621094 47.25 C 5.652344 47.25 0 41.539062 0 34.5 C 0 27.460938 5.652344 21.75 12.621094 21.75 L 39.839844 21.765625 C 46.597656 22.011719 52 27.621094 52 34.5 Z M 19.5 32.375 L 15.167969 32.375 L 15.167969 28.125 L 10.832031 28.125 L 10.832031 32.375 L 6.5 32.375 L 6.5 36.625 L 10.832031 36.625 L 10.832031 40.875 L 15.167969 40.875 L 15.167969 36.625 L 19.5 36.625 Z M 28.167969 34.5 L 23.832031 34.5 L 23.832031 36.625 L 28.167969 36.625 Z M 36.832031 30.25 C 36.832031 31.421875 37.800781 32.375 39 32.375 C 40.199219 32.375 41.167969 31.421875 41.167969 30.25 C 41.167969 29.078125 40.199219 28.125 39 28.125 C 37.800781 28.125 36.832031 29.078125 36.832031 30.25 Z M 36.832031 34.5 C 36.832031 33.328125 35.863281 32.375 34.667969 32.375 C 33.46875 32.375 32.5 33.328125 32.5 34.5 C 32.5 35.671875 33.46875 36.625 34.667969 36.625 C 35.863281 36.625 36.832031 35.671875 36.832031 34.5 Z M 41.167969 38.75 C 41.167969 37.578125 40.199219 36.625 39 36.625 C 37.800781 36.625 36.832031 37.578125 36.832031 38.75 C 36.832031 39.921875 37.800781 40.875 39 40.875 C 40.199219 40.875 41.167969 39.921875 41.167969 38.75 Z M 45.5 34.5 C 45.5 33.328125 44.53125 32.375 43.332031 32.375 C 42.136719 32.375 41.167969 33.328125 41.167969 34.5 C 41.167969 35.671875 42.136719 36.625 43.332031 36.625 C 44.53125 36.625 45.5 35.671875 45.5 34.5 Z M 45.5 34.5 "/>
</g>
</svg>
