<svg width="119" height="120" viewBox="0 0 119 120" fill="none" xmlns="http://www.w3.org/2000/svg">
<path fill-rule="evenodd" clip-rule="evenodd" d="M71.3065 27.5232L70.9935 35.3839L70.6806 27.5232C59.4986 27.6898 50.4664 36.7721 50.3124 48.0099L57.5774 48.3019L50.3124 48.5938C50.4665 59.8391 59.5106 68.926 70.7029 69.0809L70.9935 61.7815L71.2841 69.0809C82.469 68.9261 91.5085 59.8512 91.6744 48.6163L83.8506 48.3019L91.6744 47.9874C91.6457 46.0473 91.3525 44.1716 90.8292 42.3951C90.1186 42.5845 89.3721 42.6854 88.6022 42.6854C83.8169 42.6854 79.9376 38.7878 79.9376 33.9798C79.9376 32.562 80.2749 31.2234 80.8734 30.0405C78.0235 28.4807 74.768 27.5747 71.3065 27.5232ZM70.9935 51.6718C72.8459 51.6718 74.3476 50.163 74.3476 48.3019C74.3476 46.4407 72.8459 44.932 70.9935 44.932C69.1412 44.932 67.6395 46.4407 67.6395 48.3019C67.6395 50.163 69.1412 51.6718 70.9935 51.6718Z" fill="#920000"/>
<path d="M49.7536 48.6163C49.9195 60.1539 59.1973 69.4757 70.6806 69.6423L70.4569 75.2598C55.9963 75.122 44.2997 63.3701 44.1626 48.841L49.7536 48.6163Z" fill="#920000"/>
<path d="M97.2655 48.841C97.1301 63.1825 85.7318 74.8182 71.5297 75.2487L71.3065 69.6423C82.7823 69.4758 92.0556 60.166 92.2331 48.6388L97.2655 48.841Z" fill="#920000"/>
<path d="M97.2544 47.7632L92.2331 47.965C92.2025 45.9767 91.9012 44.0543 91.3648 42.2335C93.0594 41.6611 94.52 40.5766 95.5642 39.1631C96.5736 41.8499 97.1638 44.7435 97.2544 47.7632Z" fill="#920000"/>
<path d="M70.6582 26.9618C59.1853 27.1402 49.9194 36.4573 49.7536 47.9874L44.1736 47.7632C44.6021 33.4939 56.1829 22.0416 70.4569 21.9056L70.6582 26.9618Z" fill="#920000"/>
<path d="M71.3288 26.9618C74.8796 27.017 78.219 27.9476 81.1427 29.5482C82.0356 28.0343 83.3719 26.8156 84.972 26.0728C81.0673 23.5709 76.468 22.0664 71.5297 21.9167L71.3288 26.9618Z" fill="#920000"/>
<path fill-rule="evenodd" clip-rule="evenodd" d="M40.6628 86.7001C48.9039 93.2531 59.3203 97.1654 70.6461 97.1654C97.3512 97.1654 119 75.4142 119 48.5827C119 21.7512 97.3512 0 70.6461 0C43.941 0 22.2923 21.7512 22.2923 48.5827C22.2923 59.9872 26.2034 70.4739 32.7514 78.7627L20.3438 91.0718L18.6048 89.3023L2.49367 105.286C-0.801614 108.555 -0.835298 113.889 2.41843 117.2L2.70811 117.495C5.96185 120.805 11.2709 120.839 14.5661 117.57L30.6773 101.587L28.199 99.065L40.6628 86.7001ZM32.9134 48.5827C32.9134 69.5206 49.8069 86.494 70.6461 86.494C91.4854 86.494 108.379 69.5206 108.379 48.5827C108.379 27.6448 91.4854 10.6713 70.6461 10.6713C49.8069 10.6713 32.9134 27.6448 32.9134 48.5827Z" fill="#920000"/>
</svg>
