<?xml version="1.0" encoding="UTF-8"?>
<svg xmlns="http://www.w3.org/2000/svg" xmlns:xlink="http://www.w3.org/1999/xlink" width="52px" height="52px" viewBox="0 0 52 52" version="1.1">
<g id="surface1">
<path style=" stroke:none;fill-rule:nonzero;fill:rgb(37.647059%,38.039216%,38.039216%);fill-opacity:1;" d="M 40.320312 0 L 28.539062 0 L 28.539062 52 L 40.320312 52 C 46.761719 52 52 46.761719 52 40.320312 L 52 11.679688 C 52 5.238281 46.761719 0 40.320312 0 Z M 40.269531 33.71875 C 36.882812 33.71875 34.125 30.960938 34.125 27.574219 C 34.125 24.1875 36.882812 21.429688 40.269531 21.429688 C 43.65625 21.429688 46.414062 24.1875 46.414062 27.574219 C 46.414062 30.960938 43.65625 33.71875 40.269531 33.71875 Z M 40.269531 33.71875 "/>
<path style=" stroke:none;fill-rule:nonzero;fill:rgb(38.823529%,38.823529%,39.215686%);fill-opacity:1;" d="M 25.492188 52 L 11.679688 52 C 5.238281 52 0 46.761719 0 40.320312 L 0 11.679688 C 0 5.238281 5.238281 0 11.679688 0 L 25.492188 0 Z M 11.679688 3.046875 C 6.917969 3.046875 3.046875 6.917969 3.046875 11.679688 L 3.046875 40.320312 C 3.046875 45.082031 6.917969 48.953125 11.679688 48.953125 L 22.445312 48.953125 L 22.445312 3.046875 Z M 11.679688 3.046875 "/>
<path style=" stroke:none;fill-rule:nonzero;fill:rgb(38.823529%,38.823529%,39.215686%);fill-opacity:1;" d="M 12.746094 21.429688 C 9.359375 21.429688 6.601562 18.671875 6.601562 15.285156 C 6.601562 11.898438 9.359375 9.140625 12.746094 9.140625 C 16.132812 9.140625 18.890625 11.898438 18.890625 15.285156 C 18.890625 18.671875 16.132812 21.429688 12.746094 21.429688 Z M 12.746094 21.429688 "/>
</g>
</svg>
