<?xml version="1.0" encoding="UTF-8"?>
<svg xmlns="http://www.w3.org/2000/svg" xmlns:xlink="http://www.w3.org/1999/xlink" width="52px" height="52px" viewBox="0 0 42 42" version="1.1">
<g id="surface1">
<path style=" stroke:none;fill-rule:nonzero;fill:rgb(37.647059%,38.039216%,38.039216%)  ;fill-opacity:1;" d="M 9.984375 19.257812 C 10.691406 19.253906 11.261719 18.675781 11.261719 17.96875 C 11.261719 17.257812 10.691406 16.683594 9.984375 16.675781 L 1.300781 16.675781 C 1.269531 16.675781 1.246094 16.648438 1.246094 16.617188 L 1.246094 15.882812 C 1.246094 15.851562 1.269531 15.824219 1.300781 15.824219 L 10.820312 15.824219 C 11.976562 15.859375 12.902344 16.804688 12.902344 17.964844 C 12.902344 19.128906 11.976562 20.074219 10.820312 20.105469 L 4.234375 20.105469 C 3.523438 20.105469 2.945312 20.683594 2.945312 21.394531 C 2.945312 21.394531 2.945312 21.398438 2.945312 21.398438 L 2.945312 23.738281 C 2.945312 23.769531 2.921875 23.792969 2.890625 23.792969 L 1.300781 23.792969 C 1.269531 23.792969 1.246094 23.769531 1.246094 23.738281 C 1.246094 23.734375 1.246094 23.734375 1.246094 23.730469 L 1.246094 21.390625 C 1.25 20.210938 2.207031 19.257812 3.386719 19.257812 Z M 26.765625 18.816406 L 26.765625 15.882812 C 26.765625 15.851562 26.789062 15.824219 26.820312 15.824219 L 38.125 15.824219 C 38.15625 15.824219 38.183594 15.851562 38.183594 15.882812 L 38.183594 16.617188 C 38.183594 16.648438 38.15625 16.675781 38.125 16.675781 L 28.519531 16.675781 C 28.488281 16.675781 28.464844 16.699219 28.464844 16.730469 L 28.464844 18.644531 C 28.464844 18.644531 28.464844 18.644531 28.464844 18.648438 C 28.464844 18.984375 28.738281 19.257812 29.074219 19.257812 C 29.074219 19.257812 29.078125 19.257812 29.078125 19.257812 L 36.230469 19.257812 C 37.429688 19.324219 38.375 20.3125 38.375 21.523438 C 38.375 22.730469 37.425781 23.71875 36.234375 23.785156 L 26.820312 23.785156 C 26.789062 23.785156 26.765625 23.757812 26.765625 23.726562 L 26.765625 22.996094 C 26.765625 22.964844 26.789062 22.9375 26.820312 22.9375 L 35.375 22.9375 C 35.386719 22.9375 35.402344 22.9375 35.417969 22.9375 C 36.199219 22.9375 36.835938 22.304688 36.835938 21.523438 C 36.835938 20.738281 36.203125 20.105469 35.417969 20.105469 C 35.398438 20.105469 35.382812 20.105469 35.363281 20.105469 L 28.050781 20.105469 C 27.339844 20.105469 26.761719 19.527344 26.761719 18.816406 Z M 17.410156 23.785156 C 18.59375 23.785156 19.550781 22.824219 19.550781 21.644531 L 19.550781 17.964844 C 19.550781 17.253906 20.128906 16.675781 20.839844 16.675781 L 24.992188 16.675781 C 25.023438 16.675781 25.050781 16.648438 25.050781 16.617188 L 25.050781 15.882812 C 25.050781 15.851562 25.023438 15.824219 24.992188 15.824219 L 19.992188 15.824219 C 19.992188 15.824219 19.988281 15.824219 19.988281 15.824219 C 18.808594 15.824219 17.851562 16.785156 17.851562 17.964844 L 17.851562 21.648438 C 17.851562 22.359375 17.273438 22.9375 16.5625 22.9375 L 12.464844 22.9375 C 12.433594 22.9375 12.410156 22.964844 12.410156 22.992188 L 12.410156 23.730469 C 12.410156 23.761719 12.433594 23.785156 12.464844 23.785156 Z M 17.410156 23.785156 "/>
</g>
</svg>
