<?xml version="1.0" encoding="UTF-8"?>
<svg xmlns="http://www.w3.org/2000/svg" xmlns:xlink="http://www.w3.org/1999/xlink" width="52px" height="52px" viewBox="0 0 42 42" version="1.1">
<g id="surface1">
<path style=" stroke:none;fill-rule:nonzero;fill:rgb(37.647059%,38.039216%,38.039216%);fill-opacity:1;" d="M 27.417969 21.941406 L 34.828125 17.359375 C 34.84375 17.347656 34.863281 17.339844 34.882812 17.339844 C 34.929688 17.339844 34.96875 17.375 34.96875 17.421875 C 34.96875 17.425781 34.96875 17.429688 34.964844 17.433594 L 34.964844 22.015625 C 34.964844 22.042969 34.941406 22.066406 34.914062 22.070312 L 27.460938 22.070312 C 27.398438 22.070312 27.367188 22.050781 27.359375 22.03125 C 27.351562 21.996094 27.367188 21.96875 27.417969 21.941406 Z M 26.03125 22.925781 L 34.910156 22.925781 C 34.910156 22.925781 34.910156 22.925781 34.914062 22.925781 C 34.933594 22.925781 34.953125 22.941406 34.957031 22.964844 L 34.957031 23.710938 C 34.957031 23.710938 34.957031 23.714844 34.957031 23.714844 C 34.957031 23.742188 34.980469 23.765625 35.007812 23.765625 C 35.007812 23.765625 35.007812 23.765625 35.011719 23.765625 L 36.613281 23.765625 C 36.613281 23.765625 36.613281 23.765625 36.617188 23.765625 C 36.644531 23.765625 36.667969 23.742188 36.667969 23.714844 C 36.667969 23.714844 36.667969 23.710938 36.667969 23.710938 L 36.667969 22.976562 C 36.671875 22.945312 36.695312 22.921875 36.730469 22.917969 L 38.320312 22.917969 C 38.320312 22.917969 38.320312 22.917969 38.324219 22.917969 C 38.351562 22.917969 38.375 22.894531 38.375 22.867188 C 38.375 22.863281 38.375 22.863281 38.375 22.863281 L 38.375 22.113281 C 38.375 22.113281 38.375 22.113281 38.375 22.109375 C 38.375 22.082031 38.351562 22.058594 38.324219 22.058594 C 38.324219 22.058594 38.324219 22.058594 38.320312 22.058594 L 36.726562 22.058594 C 36.695312 22.058594 36.671875 22.035156 36.671875 22.003906 L 36.671875 16.652344 C 36.671875 16.214844 36.511719 15.933594 36.238281 15.84375 L 35.773438 15.84375 C 35.59375 15.890625 35.4375 15.960938 35.296875 16.050781 L 35.304688 16.046875 L 25.742188 21.949219 C 25.371094 22.179688 25.242188 22.4375 25.335938 22.636719 C 25.410156 22.796875 25.621094 22.917969 26.039062 22.917969 Z M 1.28125 23.777344 L 2.90625 23.777344 C 2.929688 23.765625 2.941406 23.742188 2.941406 23.71875 C 2.941406 23.714844 2.941406 23.714844 2.941406 23.714844 L 2.941406 21.363281 C 2.941406 20.609375 3.367188 20.089844 3.988281 20.089844 L 10.675781 20.089844 C 10.742188 20.097656 10.820312 20.101562 10.894531 20.101562 C 12.011719 20.101562 12.917969 19.199219 12.917969 18.082031 C 12.917969 18.035156 12.914062 17.988281 12.910156 17.945312 L 12.910156 17.949219 C 12.914062 17.90625 12.917969 17.859375 12.917969 17.808594 C 12.917969 16.769531 12.113281 15.921875 11.09375 15.851562 L 1.25 15.851562 L 1.242188 15.867188 L 1.242188 16.601562 C 1.242188 16.601562 1.242188 16.605469 1.242188 16.609375 C 1.242188 16.636719 1.261719 16.660156 1.292969 16.660156 C 1.292969 16.660156 1.296875 16.660156 1.296875 16.660156 L 10.113281 16.660156 C 10.863281 16.660156 11.214844 17.199219 11.214844 17.949219 C 11.214844 18.695312 10.863281 19.242188 10.113281 19.242188 L 3.136719 19.242188 C 2.078125 19.28125 1.234375 20.148438 1.234375 21.214844 C 1.234375 21.269531 1.238281 21.320312 1.242188 21.371094 L 1.242188 21.363281 L 1.242188 23.714844 C 1.242188 23.714844 1.242188 23.71875 1.242188 23.71875 C 1.242188 23.746094 1.261719 23.769531 1.285156 23.773438 Z M 20.277344 21.632812 L 20.277344 17.941406 C 20.277344 17.191406 20.628906 16.652344 21.378906 16.652344 L 26.003906 16.652344 C 26.035156 16.648438 26.054688 16.625 26.058594 16.59375 L 26.058594 15.859375 L 26.054688 15.839844 L 20.390625 15.839844 C 19.363281 15.914062 18.558594 16.765625 18.558594 17.800781 C 18.558594 17.851562 18.558594 17.898438 18.5625 17.949219 L 18.5625 17.941406 L 18.5625 21.632812 C 18.5625 22.378906 18.203125 22.917969 17.464844 22.917969 L 12.585938 22.917969 C 12.554688 22.917969 12.53125 22.941406 12.53125 22.972656 L 12.53125 23.710938 C 12.53125 23.710938 12.53125 23.714844 12.53125 23.714844 C 12.53125 23.738281 12.546875 23.761719 12.566406 23.769531 L 18.113281 23.769531 C 18.152344 23.773438 18.199219 23.777344 18.25 23.777344 C 19.363281 23.777344 20.269531 22.871094 20.269531 21.753906 C 20.269531 21.710938 20.269531 21.664062 20.269531 21.621094 L 20.269531 21.628906 Z M 20.277344 21.632812 "/>
</g>
</svg>
