<?xml version="1.0" encoding="UTF-8"?>
<svg xmlns="http://www.w3.org/2000/svg" xmlns:xlink="http://www.w3.org/1999/xlink" width="52px" height="52px" viewBox="0 0 52 52" version="1.1">
<defs>
<linearGradient id="linear0" gradientUnits="userSpaceOnUse" x1="24.9853" y1="12.0245" x2="41.1096" y2="25.4437" gradientTransform="matrix(1.181818,0,0,1.181818,0,0)">
<stop offset="0" style="stop-color:rgb(19.215686%,21.176471%,23.137255%);stop-opacity:0.207843;"/>
<stop offset="1" style="stop-color:rgb(19.215686%,21.176471%,23.137255%);stop-opacity:0;"/>
</linearGradient>
<linearGradient id="linear1" gradientUnits="userSpaceOnUse" x1="30.2997" y1="14.0833" x2="45.4664" y2="29.25" gradientTransform="matrix(1.181818,0,0,1.181818,0,0)">
<stop offset="0" style="stop-color:rgb(19.215686%,21.176471%,23.137255%);stop-opacity:0.207843;"/>
<stop offset="1" style="stop-color:rgb(19.215686%,21.176471%,23.137255%);stop-opacity:0;"/>
</linearGradient>
<linearGradient id="linear2" gradientUnits="userSpaceOnUse" x1="34.6667" y1="10.8333" x2="48.75" y2="24.9166" gradientTransform="matrix(1.181818,0,0,1.181818,0,0)">
<stop offset="0" style="stop-color:rgb(19.215686%,21.176471%,23.137255%);stop-opacity:0.207843;"/>
<stop offset="1" style="stop-color:rgb(19.215686%,21.176471%,23.137255%);stop-opacity:0;"/>
</linearGradient>
<linearGradient id="linear3" gradientUnits="userSpaceOnUse" x1="11.6516" y1="25.7413" x2="27.776" y2="39.1605" gradientTransform="matrix(1.181818,0,0,1.181818,0,0)">
<stop offset="0" style="stop-color:rgb(19.215686%,21.176471%,23.137255%);stop-opacity:0.207843;"/>
<stop offset="1" style="stop-color:rgb(19.215686%,21.176471%,23.137255%);stop-opacity:0;"/>
</linearGradient>
<linearGradient id="linear4" gradientUnits="userSpaceOnUse" x1="1.86875" y1="27.404" x2="15.9521" y2="41.4873" gradientTransform="matrix(1.181818,0,0,1.181818,0,0)">
<stop offset="0" style="stop-color:rgb(19.215686%,21.176471%,23.137255%);stop-opacity:0.207843;"/>
<stop offset="1" style="stop-color:rgb(19.215686%,21.176471%,23.137255%);stop-opacity:0;"/>
</linearGradient>
</defs>
<g id="surface1">
<path style=" stroke:none;fill-rule:nonzero;fill:rgb(39.607843%,39.607843%,39.607843%);fill-opacity:1;" d="M 25.605469 51.210938 C 39.746094 51.210938 51.210938 39.746094 51.210938 25.605469 C 51.210938 11.464844 39.746094 0 25.605469 0 C 11.464844 0 0 11.464844 0 25.605469 C 0 39.746094 11.464844 51.210938 25.605469 51.210938 Z M 25.605469 51.210938 "/>
<path style=" stroke:none;fill-rule:evenodd;fill:url(#linear0);" d="M 28.917969 25.175781 L 39.292969 24.636719 L 41.738281 15.988281 L 34.582031 10.300781 L 25.785156 17.769531 Z M 28.917969 25.175781 "/>
<path style=" stroke:none;fill-rule:evenodd;fill:url(#linear1);" d="M 34.601562 25.597656 L 39.6875 24.324219 L 42.21875 20.515625 L 37.097656 15.394531 L 30.761719 21.757812 Z M 34.601562 25.597656 "/>
<path style=" stroke:none;fill-rule:evenodd;fill:url(#linear2);" d="M 40.871094 11.945312 C 42.515625 13.667969 43.53125 15.996094 43.53125 18.566406 C 43.53125 23.867188 39.230469 28.167969 33.929688 28.167969 C 33.667969 28.164062 33.40625 28.152344 33.148438 28.128906 L 25.597656 34.671875 C 25.589844 35.621094 25.402344 36.558594 25.050781 37.4375 C 23.46875 41.371094 18.992188 43.28125 15.054688 41.695312 C 14.746094 41.570312 14.453125 41.417969 14.167969 41.261719 C 14.113281 41.230469 14.058594 41.199219 14.003906 41.164062 C 13.734375 41.003906 13.472656 40.832031 13.226562 40.640625 C 13.21875 40.636719 13.210938 40.632812 13.203125 40.625 L 13.1875 40.628906 L 23.679688 51.117188 C 24.320312 51.171875 24.960938 51.203125 25.605469 51.210938 C 26.164062 51.210938 26.726562 51.191406 27.285156 51.152344 C 27.371094 51.148438 27.453125 51.140625 27.539062 51.132812 C 28.332031 51.074219 29.121094 50.980469 29.902344 50.847656 C 29.941406 50.839844 29.984375 50.832031 30.023438 50.824219 C 30.625 50.710938 31.222656 50.578125 31.8125 50.425781 C 32.121094 50.347656 32.429688 50.273438 32.734375 50.1875 C 33.257812 50.03125 33.777344 49.859375 34.289062 49.667969 C 34.574219 49.566406 34.859375 49.472656 35.136719 49.359375 C 35.636719 49.15625 36.125 48.9375 36.609375 48.703125 C 36.890625 48.566406 37.175781 48.441406 37.449219 48.296875 C 37.894531 48.058594 38.335938 47.804688 38.769531 47.539062 C 39.066406 47.359375 39.367188 47.191406 39.65625 47 C 40.070312 46.722656 40.480469 46.429688 40.878906 46.125 C 41.140625 45.925781 41.414062 45.742188 41.667969 45.535156 C 42.066406 45.207031 42.457031 44.863281 42.832031 44.511719 C 43.074219 44.292969 43.328125 44.078125 43.5625 43.847656 C 43.929688 43.476562 44.285156 43.097656 44.628906 42.707031 C 44.839844 42.472656 45.058594 42.25 45.261719 42.011719 C 45.644531 41.539062 46.015625 41.054688 46.367188 40.554688 C 46.496094 40.375 46.640625 40.203125 46.769531 40.015625 C 49.171875 36.488281 50.65625 32.414062 51.085938 28.164062 C 51.085938 28.164062 51.085938 28.164062 51.085938 28.160156 C 51.085938 28.160156 51.085938 28.15625 51.085938 28.15625 C 51.167969 27.308594 51.210938 26.457031 51.210938 25.605469 C 51.203125 24.398438 51.109375 23.195312 50.929688 22.003906 Z M 40.871094 11.945312 "/>
<path style=" stroke:none;fill-rule:evenodd;fill:url(#linear3);" d="M 14.488281 40.59375 L 22.628906 39.773438 L 24.367188 30.105469 L 15.878906 27.84375 L 11.015625 33.695312 Z M 14.488281 40.59375 "/>
<path style=" stroke:none;fill-rule:evenodd;fill:rgb(33.333333%,41.960784%,50.980392%);fill-opacity:1;" d="M 16.625 40.804688 L 21.710938 40.273438 L 24.542969 35.859375 L 20.621094 31.820312 L 11.742188 36.925781 Z M 16.625 40.804688 "/>
<path style=" stroke:none;fill-rule:evenodd;fill:url(#linear4);" d="M 2.265625 32.40625 L 19.667969 50.484375 C 20.988281 50.800781 22.328125 51.011719 23.679688 51.117188 L 13.1875 40.628906 L 10.625 34.257812 Z M 2.265625 32.40625 "/>
<path style=" stroke:none;fill-rule:nonzero;fill:rgb(100%,100%,100%);fill-opacity:1;" d="M 33.929688 8.960938 C 28.625 8.960938 24.324219 13.261719 24.324219 18.566406 C 24.328125 18.824219 24.339844 19.082031 24.363281 19.335938 C 22.710938 21.355469 18.210938 26.4375 17.816406 26.894531 C 14.722656 26.9375 11.957031 28.832031 10.796875 31.699219 C 9.214844 35.636719 11.121094 40.109375 15.054688 41.695312 C 18.992188 43.28125 23.46875 41.371094 25.050781 37.4375 C 25.402344 36.558594 25.589844 35.621094 25.597656 34.671875 L 33.148438 28.128906 C 33.40625 28.152344 33.667969 28.164062 33.929688 28.167969 C 39.230469 28.167969 43.53125 23.867188 43.53125 18.566406 C 43.53125 13.261719 39.230469 8.960938 33.929688 8.960938 Z M 33.929688 12.804688 C 37.109375 12.804688 39.691406 15.382812 39.691406 18.566406 C 39.691406 21.746094 37.109375 24.324219 33.929688 24.324219 C 30.746094 24.324219 28.167969 21.746094 28.167969 18.566406 C 28.167969 15.382812 30.746094 12.804688 33.929688 12.804688 Z M 17.984375 29.445312 C 18.621094 29.453125 19.246094 29.582031 19.835938 29.816406 C 22.460938 30.875 23.730469 33.859375 22.675781 36.480469 C 21.617188 39.105469 18.636719 40.375 16.011719 39.320312 C 13.386719 38.261719 12.117188 35.28125 13.171875 32.65625 C 13.960938 30.695312 15.871094 29.421875 17.984375 29.445312 Z M 17.984375 29.445312 "/>
<path style=" stroke:none;fill-rule:nonzero;fill:rgb(100%,100%,100%);fill-opacity:1;" d="M 33.929688 23.046875 C 36.402344 23.046875 38.410156 21.039062 38.410156 18.5625 C 38.410156 16.089844 36.402344 14.082031 33.929688 14.082031 C 31.453125 14.082031 29.445312 16.089844 29.445312 18.5625 C 29.445312 21.039062 31.453125 23.046875 33.929688 23.046875 Z M 33.929688 23.046875 "/>
<path style=" stroke:none;fill-rule:nonzero;fill:rgb(100%,100%,100%);fill-opacity:1;" d="M 1.371094 23.769531 C 1.320312 24.378906 1.289062 24.992188 1.28125 25.605469 C 1.285156 27.910156 1.617188 30.199219 2.265625 32.40625 L 16.492188 38.132812 C 17.4375 38.511719 18.492188 38.5 19.429688 38.101562 C 20.367188 37.703125 21.105469 36.945312 21.488281 36 C 21.867188 35.054688 21.855469 34 21.457031 33.0625 C 21.058594 32.125 20.300781 31.386719 19.355469 31.003906 Z M 1.371094 23.769531 "/>
</g>
</svg>
