<?xml version="1.0" encoding="UTF-8"?>
<svg xmlns="http://www.w3.org/2000/svg" xmlns:xlink="http://www.w3.org/1999/xlink" width="52px" height="52px" viewBox="0 0 52 52" version="1.1">
<g id="surface1">
<path style=" stroke:none;fill-rule:nonzero;fill:rgb(37.647059%,38.039216%,38.039216%);fill-opacity:1;" d="M 33.269531 29.1875 L 31.285156 26.492188 L 29.300781 29.1875 L 28.484375 29.1875 L 30.871094 25.933594 L 28.691406 22.972656 L 29.507812 22.972656 L 31.285156 25.386719 L 33.058594 22.972656 L 33.875 22.972656 L 31.699219 25.933594 L 34.085938 29.1875 Z M 17.800781 29.1875 L 15.410156 25.933594 L 17.589844 22.972656 L 16.773438 22.972656 L 15 25.386719 L 13.222656 22.972656 L 12.410156 22.972656 L 14.585938 25.933594 L 12.199219 29.1875 L 13.015625 29.1875 L 15 26.492188 L 16.984375 29.1875 Z M 17.800781 29.1875 "/>
<path style=" stroke:none;fill-rule:nonzero;fill:rgb(37.647059%,38.039216%,38.039216%);fill-opacity:1;" d="M 22.34375 26.167969 C 22.21875 26.0625 22.082031 25.976562 21.9375 25.90625 C 22.394531 25.664062 22.683594 25.183594 22.683594 24.664062 C 22.683594 24.265625 22.535156 22.972656 20.664062 22.972656 L 18.140625 22.972656 L 18.140625 25.652344 L 17.300781 25.652344 C 17.191406 25.792969 16.941406 26.136719 16.847656 26.273438 L 18.140625 26.273438 L 18.140625 29.1875 L 20.664062 29.1875 C 22.03125 29.1875 22.878906 28.492188 22.878906 27.371094 C 22.878906 26.882812 22.695312 26.46875 22.34375 26.167969 M 18.835938 23.621094 L 20.664062 23.621094 C 21.15625 23.621094 21.984375 23.746094 21.984375 24.609375 C 21.984375 25.261719 21.503906 25.652344 20.664062 25.652344 L 18.835938 25.652344 Z M 20.664062 28.539062 L 18.835938 28.539062 L 18.835938 26.277344 L 20.664062 26.277344 C 21.355469 26.277344 22.183594 26.46875 22.183594 27.359375 C 22.183594 28.386719 21.230469 28.539062 20.664062 28.539062 M 26.160156 22.832031 C 24.417969 22.832031 23.195312 24.164062 23.195312 26.078125 C 23.195312 27.992188 24.417969 29.324219 26.160156 29.324219 C 27.90625 29.324219 29.121094 27.992188 29.121094 26.078125 C 29.121094 24.164062 27.90625 22.832031 26.160156 22.832031 M 26.160156 28.667969 C 24.832031 28.667969 23.898438 27.601562 23.898438 26.078125 C 23.898438 24.550781 24.832031 23.488281 26.160156 23.488281 C 27.488281 23.488281 28.414062 24.550781 28.414062 26.078125 C 28.414062 27.601562 27.488281 28.667969 26.160156 28.667969 M 1.546875 22.308594 L 1.539062 22.3125 C 0.554688 23.285156 0 24.613281 0 26 C 0 27.132812 0.371094 28.234375 1.058594 29.136719 C 1.066406 29.144531 1.078125 29.148438 1.085938 29.144531 C 1.09375 29.140625 1.097656 29.128906 1.09375 29.117188 C 0.699219 27.898438 2.714844 24.9375 3.757812 23.695312 C 3.761719 23.691406 3.765625 23.6875 3.765625 23.683594 C 3.765625 23.675781 3.761719 23.667969 3.757812 23.664062 C 2.003906 21.917969 1.535156 22.320312 1.539062 22.3125 M 8.8125 22.308594 L 8.816406 22.3125 C 9.804688 23.285156 10.359375 24.613281 10.359375 26 C 10.359375 27.132812 9.988281 28.234375 9.300781 29.136719 C 9.292969 29.144531 9.28125 29.148438 9.273438 29.144531 C 9.261719 29.140625 9.261719 29.128906 9.265625 29.117188 C 9.660156 27.898438 7.644531 24.9375 6.601562 23.695312 C 6.597656 23.691406 6.59375 23.683594 6.59375 23.679688 C 6.59375 23.671875 6.597656 23.667969 6.605469 23.664062 C 8.359375 21.917969 8.824219 22.320312 8.816406 22.3125 M 5.179688 20.820312 C 6.222656 20.820312 7.085938 21.105469 7.878906 21.578125 C 7.886719 21.582031 7.890625 21.59375 7.886719 21.601562 C 7.882812 21.613281 7.871094 21.613281 7.859375 21.613281 C 6.859375 21.394531 5.335938 22.261719 5.191406 22.347656 C 5.1875 22.351562 5.183594 22.351562 5.179688 22.351562 C 5.175781 22.351562 5.171875 22.351562 5.167969 22.347656 C 4.785156 22.128906 3.375 21.390625 2.488281 21.617188 C 2.480469 21.621094 2.46875 21.617188 2.464844 21.609375 C 2.460938 21.597656 2.464844 21.585938 2.472656 21.582031 C 3.265625 21.105469 4.136719 20.820312 5.179688 20.820312 M 5.179688 24.972656 C 5.183594 24.972656 5.191406 24.976562 5.195312 24.980469 C 6.746094 26.160156 9.398438 29.074219 8.589844 29.898438 L 8.589844 29.894531 L 8.589844 29.898438 C 7.644531 30.726562 6.433594 31.179688 5.179688 31.179688 C 3.925781 31.179688 2.710938 30.726562 1.769531 29.898438 L 1.769531 29.894531 L 1.769531 29.898438 C 0.960938 29.074219 3.613281 26.160156 5.160156 24.980469 C 5.164062 24.976562 5.171875 24.972656 5.179688 24.972656 M 46.140625 22.972656 L 46.140625 28.074219 L 42.386719 22.96875 L 41.769531 22.96875 L 41.769531 29.175781 L 42.460938 29.175781 L 42.460938 24.191406 L 46.140625 29.179688 L 46.835938 29.183594 L 46.835938 22.972656 Z M 38.179688 22.828125 C 36.433594 22.828125 35.214844 24.164062 35.214844 26.074219 C 35.214844 27.988281 36.433594 29.324219 38.179688 29.324219 C 39.925781 29.324219 41.140625 27.988281 41.140625 26.074219 C 41.140625 24.164062 39.925781 22.828125 38.179688 22.828125 M 38.179688 28.667969 C 36.851562 28.667969 35.917969 27.601562 35.917969 26.074219 C 35.917969 24.550781 36.851562 23.484375 38.179688 23.484375 C 39.507812 23.484375 40.433594 24.550781 40.433594 26.074219 C 40.433594 27.601562 39.507812 28.667969 38.179688 28.667969 M 48.308594 28.574219 L 48.308594 26.277344 L 51.726562 26.277344 L 51.726562 25.667969 L 48.308594 25.667969 L 48.308594 23.578125 L 51.957031 23.578125 L 51.957031 22.96875 L 47.609375 22.96875 L 47.609375 29.183594 L 52 29.183594 L 52 28.574219 Z M 48.308594 28.574219 "/>
</g>
</svg>
